HIERARCHY
ROOT Hips
{
	OFFSET -10.795721 105.264893 -7.866684
	CHANNELS 6 Xposition Yposition Zposition Xrotation Yrotation Zrotation
	JOINT Chest
	{
		OFFSET -8.803780 10.395981 -0.755867
		CHANNELS 3 Xrotation Yrotation Zrotation
		JOINT Chest2
		{
			OFFSET -13.350775 16.688904 1.517943
			CHANNELS 3 Xrotation Yrotation Zrotation
			JOINT Chest3
			{
				OFFSET -5.886311 13.698364 0.725330
				CHANNELS 3 Xrotation Yrotation Zrotation
				JOINT Neck
				{
					OFFSET -7.956528 14.908005 3.614033
					CHANNELS 3 Xrotation Yrotation Zrotation
					JOINT Head
					{
						OFFSET -4.093830 8.759995 4.041129
						CHANNELS 3 Xrotation Yrotation Zrotation
						End Site
						{
							OFFSET -4.027111 8.781082 4.062328
						}
					}
				}
				JOINT LeftCollar
				{
					OFFSET -9.610012 8.909912 5.483195
					CHANNELS 3 Xrotation Yrotation Zrotation
					JOINT LeftUpArm
					{
						OFFSET 0.302601 -6.512787 16.309246
						CHANNELS 3 Xrotation Yrotation Zrotation
						JOINT LeftLowArm
						{
							OFFSET -22.329681 -24.016525 8.019971
							CHANNELS 3 Xrotation Yrotation Zrotation
							JOINT LeftHand
							{
								OFFSET -20.417427 -21.518562 4.585531
								CHANNELS 3 Xrotation Yrotation Zrotation
								End Site
								{
									OFFSET -4.462334 -4.703026 1.002195
								}
							}
						}
					}
				}
				JOINT RightCollar
				{
					OFFSET -7.512974 11.870392 -2.111353
					CHANNELS 3 Xrotation Yrotation Zrotation
					JOINT RightUpArm
					{
						OFFSET 8.101616 13.712479 -7.404608
						CHANNELS 3 Xrotation Yrotation Zrotation
						JOINT RightLowArm
						{
							OFFSET -12.258217 28.423080 -13.475838
							CHANNELS 3 Xrotation Yrotation Zrotation
							JOINT RightHand
							{
								OFFSET -7.005337 26.731232 11.718435
								CHANNELS 3 Xrotation Yrotation Zrotation
								End Site
								{
									OFFSET -1.531090 5.842377 2.561192
								}
							}
						}
					}
				}
			}
		}
	}
	JOINT LeftUpLeg
	{
		OFFSET 0.704563 1.316849 9.909020
		CHANNELS 3 Xrotation Yrotation Zrotation
		JOINT LeftLowLeg
		{
			OFFSET 40.810616 -16.944374 17.069595
			CHANNELS 3 Xrotation Yrotation Zrotation
			JOINT LeftFoot
			{
				OFFSET 42.169392 14.818993 -1.645628
				CHANNELS 3 Xrotation Yrotation Zrotation
				JOINT LeftToe
				{
					OFFSET 23.422287 -2.586708 2.065205
					CHANNELS 3 Xrotation Yrotation Zrotation
					End Site
					{
						OFFSET 16.013191 -14.577888 9.519547
					}
				}
			}
		}
	}
	JOINT RightUpLeg
	{
		OFFSET -0.704435 -1.316994 -9.909014
		CHANNELS 3 Xrotation Yrotation Zrotation
		JOINT RightLowLeg
		{
			OFFSET -15.495323 -44.756111 -0.893864
			CHANNELS 3 Xrotation Yrotation Zrotation
			JOINT RightFoot
			{
				OFFSET 14.344826 -42.357597 0.800457
				CHANNELS 3 Xrotation Yrotation Zrotation
				JOINT RightToe
				{
					OFFSET -17.880032 -15.470146 -0.732285
					CHANNELS 3 Xrotation Yrotation Zrotation
					End Site
					{
						OFFSET -23.204166 -0.920734 -4.502790
					}
				}
			}
		}
	}
}
MOTION
Frames: 14
Frame Time: 0.033333
-8.069467 101.341606 -14.099466 -3.510166 -0.278360 18.501447 1.026674 1.017693 2.593454 0.462474 1.015300 -2.645333 5.374029 -7.769825 -1.594693 1.117932 4.463939 -8.343436 0.000000 0.000001 0.000002 -1.813149 -4.670708 -1.810180 -5.832909 -2.678909 -11.344709 -8.245097 5.676018 -14.540026 0.000003 0.000003 -0.000003 -0.628667 -0.113591 -1.431123 -1.934228 1.038222 -1.927912 -5.018130 -1.228305 -0.411959 -0.000002 -0.000001 -0.000000 -7.645261 -5.949620 6.047934 0.042265 -4.350670 5.452094 -1.904057 2.677663 5.225890 -0.000005 -0.000002 0.000001 1.000926 -0.343394 -21.392883 3.958795 -0.299303 -1.657923 -1.921317 5.863882 4.980375 0.000002 0.000001 -0.000000 
-7.979658 101.329529 -14.298942 -4.181123 -0.189262 18.774281 1.233762 1.207219 2.976160 0.666186 1.202941 -2.522138 5.502380 -8.135858 -1.622183 1.306765 4.534277 -8.488774 0.000000 -0.000000 0.000001 -1.521799 -4.912484 -2.189532 -5.453822 -1.882365 -11.133590 -7.213004 5.495525 -14.559665 0.000002 -0.000004 -0.000000 -0.690001 0.149895 -1.569658 -2.602732 1.534782 -2.491517 -5.130460 -0.754247 0.921034 -0.000002 -0.000000 0.000002 -7.985742 -6.288428 6.337393 0.111278 -5.679256 4.941018 -2.355121 2.759657 5.697880 -0.000001 -0.000002 -0.000002 1.475021 -0.365938 -21.568020 3.649583 0.011653 -2.078171 -1.918153 4.772969 5.201188 0.000000 -0.000000 -0.000000 
-7.895137 101.318336 -14.497353 -4.403053 -0.004922 18.953683 1.260670 1.242134 2.998266 0.733711 1.175880 -2.177036 5.568397 -8.257309 -1.866749 0.975084 4.094150 -8.338560 0.000004 0.000000 -0.000002 -1.662709 -5.168859 -2.363870 -5.217912 -1.484815 -10.773229 -6.560343 5.123525 -14.533007 0.000001 0.000000 -0.000003 -0.435225 0.311007 -1.466778 -2.716081 1.706259 -2.622804 -5.377559 -0.624398 1.486078 -0.000004 -0.000000 0.000002 -8.453961 -6.858414 6.462964 0.296578 -5.781511 4.776715 -1.995868 3.782910 6.038106 -0.000006 -0.000001 0.000003 1.682543 -0.361707 -21.624577 3.677079 0.157522 -2.463325 -1.839035 4.193724 5.462078 0.000004 0.000002 -0.000000 
-7.813055 101.309532 -14.706715 -4.169152 0.363104 19.309717 1.026860 1.050364 3.021001 0.451306 0.679924 -2.171460 5.705952 -7.623930 -1.883044 1.028368 4.331402 -8.389505 0.000001 -0.000000 -0.000001 -1.714549 -5.674157 -2.471149 -5.177877 -1.118104 -10.467737 -5.861396 4.423829 -14.655868 0.000002 0.000000 -0.000000 -1.355234 0.350256 -1.416151 -1.391852 1.804635 -2.920176 -6.446843 -0.940742 2.106167 -0.000000 -0.000000 -0.000003 -8.796100 -7.216359 6.765491 0.385249 -4.938622 4.446136 -2.651768 3.292221 6.338493 -0.000000 -0.000001 -0.000001 1.528633 -0.301795 -21.852891 3.477450 0.371339 -2.910055 -1.817118 3.642192 5.978438 0.000003 0.000002 -0.000000 
-7.735023 101.310814 -14.908899 -4.198960 0.167812 19.764385 1.276842 1.291894 3.039464 0.237051 0.426421 -2.295123 5.851651 -7.601970 -1.834299 0.928546 4.258094 -8.619057 -0.000000 0.000002 -0.000002 -1.469652 -5.712761 -2.443893 -4.887264 -1.123999 -10.565825 -5.371073 4.708544 -14.678760 0.000001 -0.000002 -0.000004 -1.833463 0.440568 -1.408556 -1.215155 1.970051 -3.080500 -7.425603 -0.855590 2.923227 0.000002 0.000000 -0.000002 -8.958670 -7.635468 6.786404 0.637593 -4.442542 4.049559 -2.901104 3.393903 6.724921 -0.000003 -0.000004 -0.000004 1.757638 -0.204486 -22.192236 3.533802 0.634071 -3.407932 -1.901992 3.305969 6.421536 0.000002 0.000002 -0.000000 
-7.661382 101.313400 -15.103723 -4.592327 0.442982 20.065498 1.333259 1.320078 3.329415 0.278678 0.586223 -2.319399 5.938808 -7.852630 -1.947732 1.053745 4.435200 -8.884252 0.000001 -0.000001 -0.000003 -1.654799 -5.808336 -2.414901 -5.099028 -1.083569 -10.319341 -5.730655 4.767393 -14.586724 0.000003 -0.000001 -0.000003 -1.742391 0.202186 -1.529963 -1.238398 1.626757 -3.239253 -7.261020 -0.969227 3.131655 -0.000002 -0.000000 0.000002 -9.281320 -8.243791 6.508420 0.642525 -4.886549 3.815601 -2.573321 3.658875 6.520007 -0.000001 -0.000001 -0.000003 2.540469 -0.182054 -22.327752 3.537007 0.550353 -3.821522 -1.767360 2.953447 6.786446 0.000001 0.000001 -0.000000 
-7.582274 101.322327 -15.297127 -5.292037 0.396028 20.517385 1.390617 1.414216 3.438843 0.429219 0.809225 -2.306991 6.381960 -8.573958 -2.111690 1.047580 4.565599 -9.138597 0.000003 0.000002 0.000001 -1.563399 -5.846237 -2.676436 -4.328618 -0.749458 -10.249054 -4.823228 4.723716 -14.787515 0.000003 0.000001 -0.000001 -1.837963 0.569799 -1.495131 -1.120747 2.092725 -3.506694 -8.110251 -0.876981 3.800762 -0.000004 0.000000 0.000003 -9.384944 -8.346275 6.363269 0.647812 -5.562348 3.029079 -2.873597 3.864947 7.125091 -0.000004 -0.000001 -0.000007 3.309322 -0.237456 -22.740749 3.373501 0.557447 -4.081324 -1.688622 2.640387 7.122362 0.000001 0.000002 0.000000 
-7.503304 101.331497 -15.499212 -5.880650 0.204225 21.151907 1.419043 1.483800 3.324127 0.470891 0.781212 -2.300779 6.557846 -8.866888 -2.237791 1.139812 4.707860 -9.433907 -0.000003 0.000001 0.000002 -1.613535 -5.906484 -3.005389 -3.060714 -0.855348 -10.076327 -4.186743 4.921856 -15.178203 -0.000000 -0.000002 0.000002 -1.700111 0.844316 -1.610752 -0.765657 2.587884 -3.708741 -7.552909 -0.219577 4.378463 -0.000000 -0.000000 0.000002 -9.302216 -8.134394 6.412306 0.609982 -5.375168 2.226178 -3.648239 3.220536 7.631266 -0.000000 -0.000003 -0.000002 3.081275 -0.313683 -23.382048 3.350186 0.515750 -4.276527 -1.650035 2.428014 7.235480 0.000002 0.000002 -0.000000 
-7.411126 101.334686 -15.680237 -5.886108 0.877246 21.440773 0.903220 1.014797 3.747227 0.590569 1.275804 -2.616834 6.848653 -9.162817 -2.269404 1.017623 4.886520 -9.518197 0.000001 0.000003 -0.000004 -2.456935 -5.545936 -2.841324 -2.847384 -2.209695 -10.019453 -5.314635 5.061917 -14.589813 0.000001 0.000003 0.000001 -1.858691 0.374573 -1.472089 -0.716483 1.441744 -3.350023 -8.948408 -1.382299 3.384774 -0.000003 -0.000000 0.000002 -9.782767 -8.684135 6.690572 0.255352 -5.928486 1.542317 -2.625567 3.751766 7.180448 -0.000002 -0.000003 0.000001 3.435360 -0.386769 -23.761511 2.815634 -0.088531 -4.167953 -0.956914 1.908569 6.867440 0.000000 -0.000000 0.000000 
-7.322137 101.322083 -15.860703 -5.483526 0.974087 21.850455 0.600348 0.752074 3.900989 0.854018 1.857319 -2.856650 6.521760 -9.367809 -2.242643 1.287586 5.321012 -9.616456 -0.000001 0.000001 0.000002 -2.631698 -5.744745 -2.917797 -3.250696 -1.721691 -9.730822 -5.541141 5.145391 -14.284112 -0.000001 -0.000001 0.000001 -1.731195 0.289250 -1.496304 -2.029806 1.232246 -3.275652 -9.486138 -1.636592 3.654898 -0.000002 0.000001 -0.000001 -10.207895 -9.245335 6.945845 0.183166 -5.285135 1.428328 -2.567213 3.280235 6.802766 -0.000007 -0.000001 -0.000003 3.178035 -0.402544 -24.205888 2.286186 -0.297897 -4.353608 -0.887662 2.072605 7.317077 0.000000 -0.000000 -0.000000 
-7.229440 101.303185 -16.044188 -5.248209 1.089863 22.346255 0.396886 0.556449 3.906566 0.957707 2.098182 -3.009706 6.330174 -9.345681 -2.214917 1.144324 5.193038 -9.735521 0.000001 -0.000001 -0.000001 -2.708588 -6.225476 -2.840941 -3.670968 -1.581139 -9.621753 -6.235098 5.248981 -14.355623 0.000004 -0.000000 -0.000000 -2.073332 0.144155 -1.377237 -1.790520 1.160147 -3.024380 -7.908134 -1.344144 3.278632 -0.000002 0.000000 0.000003 -10.522638 -9.593241 7.216207 0.085074 -4.823711 1.296370 -2.873433 2.605906 6.565523 -0.000007 -0.000000 -0.000001 2.965949 -0.366550 -24.748408 1.742201 -0.376355 -4.563567 -0.994127 2.364624 7.572495 0.000003 0.000002 -0.000000 
-7.133637 101.283150 -16.236292 -5.275138 1.441256 22.704191 0.115346 0.292682 3.920465 0.725583 1.700000 -2.887043 6.507886 -8.963419 -2.385405 0.848907 4.694844 -9.801824 -0.000001 0.000002 -0.000001 -2.696093 -6.692918 -2.684553 -4.027122 -1.641037 -9.758401 -6.453214 4.953691 -14.471405 0.000001 0.000003 -0.000003 -2.092505 -0.010888 -1.337796 -1.705378 0.929766 -2.961821 -9.043600 -1.992891 3.148859 -0.000001 0.000001 0.000001 -10.794750 -9.823081 7.386050 -0.089992 -5.263880 1.024047 -2.484883 3.149494 6.702060 -0.000005 -0.000002 -0.000003 3.427738 -0.433902 -25.113754 1.517735 -0.664930 -4.808761 -0.703112 2.084202 7.851512 0.000002 0.000001 0.000000 
-7.039924 101.263008 -16.435635 -5.203112 1.079389 23.363852 -0.108738 0.111812 3.734390 1.199316 2.483448 -2.909009 6.030570 -9.205494 -2.368117 1.361359 5.297762 -9.936691 0.000000 0.000001 0.000004 -2.687374 -6.884482 -2.852472 -3.615252 -1.329429 -9.925440 -5.419873 4.971760 -14.790768 -0.000002 -0.000002 0.000002 -1.522019 0.181285 -1.385920 -2.570880 1.205767 -3.273947 -9.324100 -1.391194 4.030451 -0.000002 -0.000000 -0.000000 -10.593186 -9.697463 7.451736 -0.129405 -4.748359 0.652166 -2.614413 3.077640 6.979218 -0.000007 0.000001 -0.000002 2.907927 -0.415029 -25.727152 0.925557 -0.800404 -5.162154 -0.477622 1.640027 7.848434 0.000003 0.000001 0.000000 
-6.946180 101.244514 -16.644314 -4.676962 1.050516 23.926875 -0.091615 0.149398 3.610367 0.923248 1.982704 -2.956225 6.014133 -8.555287 -2.329919 1.159990 4.744367 -10.235447 0.000004 -0.000001 0.000002 -2.876828 -6.507807 -3.213618 -3.153900 -1.012025 -10.042403 -4.374800 4.836646 -14.973740 0.000002 0.000003 0.000001 -2.244308 0.574070 -1.376557 -2.531769 1.662353 -3.706339 -9.772004 -0.935007 4.841316 -0.000004 0.000000 -0.000003 -10.648586 -9.798000 7.774456 -0.096679 -4.299143 0.048631 -3.097381 3.060421 7.676339 -0.000003 0.000000 -0.000001 2.771801 -0.449908 -26.161189 1.007834 -0.836177 -5.726607 -0.703771 2.054114 8.441370 0.000004 0.000001 -0.000000 
